<svg xmlns="http://www.w3.org/2000/svg" viewBox="0 0 16 16" width="32" height="32"><path d="M7.695 3.02c-.828-.008-1.453.03-1.976.3a1.32 1.32 0 00-.485.414c-.062.082-.12.157-.148.329a.517.517 0 00.059.367c.085.152.27.254.394.273.094.012.293.094.328.14a.782.782 0 01.125.25c.012.048.008.016.008.016v.047s.031.492.012 1c-.012.25-.035.512-.074.688-.04.176-.137.218.003.136-.097.06-.062.082-.183.02-.125-.059-.45-.332-.875-1.098-.426-.77-.735-1.168-.805-1.254-.027-.078-.094-.238-.32-.414-.293-.226-.594-.23-.594-.23L3.137 4H.953s-.125.004-.27.035c-.144.031-.351.067-.546.309H.133c-.2.254-.164.484-.149.625.02.144.063.258.063.258l.008.023.011.023S1.734 8.832 3.726 11c1.872 2.04 4.04 2 4.04 2h1.23l.027-.004s.395.02.727-.351a.914.914 0 00.227-.504c.023-.137.023-.246.023-.246v.03s.016-.257.086-.527c.035-.132.086-.265.133-.34.023-.042.023-.03.031-.042.086.062.227.207.375.39.305.364.648.867 1.129 1.215.348.246.676.356.926.395.168.027.289.023.37.015l1.7-.031h.016s.351-.008.703-.23a.988.988 0 00.437-.594c.07-.285-.008-.594-.172-.88.055.099-.011-.03-.062-.132a3.596 3.596 0 00-.246-.41c-.227-.336-.602-.809-1.223-1.41-.293-.281-.48-.438-.598-.547.036-.05.04-.055.172-.211.211-.246.52-.61.91-1.152.47-.657.81-1.192 1.028-1.637.219-.442.394-.809.2-1.262-.106-.246-.294-.34-.43-.398a1.647 1.647 0 00-.383-.102C14.872 4 14.668 4 14.668 4l-1.98.016c-.06-.012-.286-.055-.579.132-.289.18-.355.372-.37.43-.048.067-.376.531-.833 1.344-.46.82-.773 1.043-.812 1.062-.012-.011.011-.007-.043-.039-.024-.02-.047-.035-.067-.246-.015-.21.004-.543.004-.933 0-.84.075-1.278.032-1.696-.02-.21-.106-.468-.293-.64-.188-.168-.391-.23-.602-.285-.332-.083-.781-.118-1.43-.125zm-.008 1c.606.007 1.032.054 1.188.093.133.035.152.051.148.043v.016c.016.168-.035.707-.035 1.594 0 .347-.027.683 0 1.02.028.335.149.745.504.987h.004c-.043-.027.45.34.918.172.469-.172.84-.601 1.367-1.535.461-.828.801-1.293.801-1.293l.031-.047.024-.047s-.008-.003 0-.007L14.668 5s.14 0 .277.023h.012c-.02.008-.004.059-.14.336-.176.356-.493.864-.942 1.493a16.4 16.4 0 01-.855 1.085c-.207.239-.364.352-.465.665a.78.78 0 00.035.53c.07.15.156.231.242.313.172.164.375.325.672.617.582.563.91.977 1.094 1.25.093.141.148.239.183.31.035.07.012.042.09.175.066.121.055.137.055.129a1.073 1.073 0 01-.239.074l-1.699.031-.047.012s.004.004-.101-.012a1.202 1.202 0 01-.5-.222c-.27-.192-.61-.637-.945-1.043a3.15 3.15 0 00-.543-.551c-.211-.156-.543-.3-.883-.188-.293.094-.485.309-.606.508a2.5 2.5 0 00-.246.606c-.101.386-.117.734-.117.734v.031s0 .024-.008.059c-.02.008-.047.027-.062.035H7.734s-1.652.086-3.273-1.672C2.727 8.434 1.184 5.266 1.055 5h2.011l.082.031c-.046-.039.024.047.024.047l.031.074.055.063s.308.375.75 1.172c.472.855.87 1.3 1.316 1.515.446.215.914.063 1.114-.05.37-.215.414-.516.476-.793.063-.278.082-.575.094-.864C7.03 5.641 7 5.168 7 5.133c-.004-.012-.004-.149-.043-.297a1.846 1.846 0 00-.27-.563c-.062-.085-.12-.043-.187-.105.277-.078.574-.156 1.188-.148z"/></svg>