<svg height="512" width="512" xmlns="http://www.w3.org/2000/svg"><path d="M507.505 208.193A15 15 0 00492.77 196H256c-8.284 0-15 6.716-15 15v90c0 8.284 6.716 15 15 15h120.93c-9.118 18.344-22.201 34.22-37.905 46.655a14.997 14.997 0 00-3.673 2.696c-.115.115-.213.24-.323.358C312.404 382.325 284.836 392 256 392c-75.256 0-136-61.307-136-136 0-74.723 60.777-136 136-136 28.563 0 56.552 9.693 80.944 28.032a15 15 0 0019.62-1.383l64.009-64.009c6.221-6.221 5.773-16.449-.97-22.102C373.035 21.5 314.934 0 256 0 187.99 0 123.806 26.731 75.269 75.268 26.73 123.806 0 187.991 0 256s26.73 132.194 75.269 180.732C123.806 485.269 187.99 512 256 512s132.194-26.731 180.731-75.268C485.27 388.194 512 324.009 512 256c0-16.063-1.513-32.147-4.495-47.807zM256 30c46.582 0 92.649 15.316 131.372 43.414l-43.146 43.147C317.198 99.144 286.946 90 256 90c-44.007 0-85.601 17.359-117.121 48.879-11.849 11.85-21.696 25.124-29.373 39.414l-43.915-43.915C105.796 71.653 176.125 30 256 30zM50.591 161.804l46.461 46.461C92.408 223.58 90 239.622 90 256s2.408 32.42 7.052 47.735l-46.461 46.461C37.382 321.505 30 289.6 30 256s7.382-65.505 20.591-94.196zm15 215.818l43.915-43.915c7.677 14.29 17.524 27.564 29.373 39.414C170.399 404.641 211.993 422 256 422c31.656 0 62.025-9.039 88.551-26.237l43.517 43.518C350.893 466.143 305.266 482 256 482c-79.875 0-150.204-41.653-190.409-104.378zm345.681 42.437l-42.951-42.952c20.789-19.607 36.547-44.494 45.09-71.599a15.002 15.002 0 00-14.307-19.509H271v-60h209.008a227.05 227.05 0 011.992 30c0 64.54-27.198 122.841-70.728 164.06z"/></svg>